<?xml version="1.0" encoding="UTF-8"?>
<svg xmlns="http://www.w3.org/2000/svg" version="1.1" viewBox="0 0 1499 1080">
  <defs>
    <style>
      .cls-1 {
        fill: #fbc80e;
      }

      .cls-2 {
        fill: #1c2322;
      }
    </style>
  </defs>
  <!-- Generator: Adobe Illustrator 28.7.4, SVG Export Plug-In . SVG Version: 1.2.0 Build 166)  -->
  <g>
    <g id="Layer_1">
      <rect class="cls-1" x="68.45" y="281.1" width="1340.16" height="719.42"/>
      <path class="cls-2" d="M1298.26,1079.55H200.54C89.85,1079.55-.2,989.5-.2,878.81V201.09C-.2,90.4,89.85.36,200.54.36h1097.72c110.69,0,200.74,90.05,200.74,200.74v677.72c0,110.69-90.05,200.74-200.74,200.74ZM200.54,289.55c-61.91,0-112.28,50.37-112.28,112.28v476.98c0,61.91,50.37,112.28,112.28,112.28h1097.72c61.91,0,112.28-50.37,112.28-112.28v-476.98c0-61.91-50.37-112.28-112.28-112.28H200.54Z"/>
      <circle class="cls-1" cx="208.78" cy="145.61" r="62.05"/>
      <circle class="cls-1" cx="405.9" cy="145.61" r="62.05"/>
      <g>
        <path class="cls-2" d="M175.24,906.26c-3.8-3.8-5.7-9.5-5.7-17.1v-486.49c0-7.6,1.9-13.3,5.7-17.1s9.24-5.7,16.34-5.7h112.5c49.15,0,84.38,10.64,105.66,31.93s31.93,49.92,31.93,85.9v57.01c0,25.35-6.34,46.25-19,62.71-12.67,16.47-32.44,24.7-59.29,24.7h-6.08v1.52h5.32c30.41,0,51.69,7.73,63.85,23.18,12.16,15.46,18.24,34.09,18.24,55.87v66.89c0,35.99-10.9,65.37-32.69,88.18-21.79,22.8-56.76,34.21-104.9,34.21h-115.54c-7.1,0-12.54-1.9-16.34-5.7ZM334.49,809.72c5.57-6.84,8.36-18.11,8.36-33.83v-58.53c0-12.16-2.66-21.4-7.98-27.75-5.32-6.33-15.33-9.5-30.03-9.5h-51.69v-76.01h48.65c15.2,0,25.46-2.78,30.79-8.36,5.32-5.57,7.98-14.94,7.98-28.13v-57.01c0-13.17-2.79-22.92-8.36-29.27-5.58-6.33-14.7-9.5-27.37-9.5h-34.21v348.14h36.49c12.66,0,21.78-3.42,27.36-10.26Z"/>
        <path class="cls-2" d="M577.35,905.88c-3.8,4.06-9.5,6.08-17.1,6.08h-56.25c-7.1,0-12.54-2.02-16.34-6.08-3.8-4.05-5.7-9.62-5.7-16.72v-486.49c0-7.6,1.9-13.3,5.7-17.1s9.24-5.7,16.34-5.7h56.25c7.6,0,13.3,1.9,17.1,5.7s5.7,9.5,5.7,17.1v185.48h71.45v-185.48c0-7.6,2.02-13.3,6.08-17.1,4.05-3.8,9.62-5.7,16.72-5.7h56.25c7.09,0,12.66,1.9,16.72,5.7,4.05,3.8,6.08,9.5,6.08,17.1v486.49c0,7.1-2.03,12.67-6.08,16.72-4.06,4.06-9.63,6.08-16.72,6.08h-56.25c-7.1,0-12.67-2.02-16.72-6.08-4.06-4.05-6.08-9.62-6.08-16.72v-215.88h-71.45v215.88c0,7.1-1.9,12.67-5.7,16.72Z"/>
        <path class="cls-2" d="M806.91,906.26c-3.8-3.8-5.7-9.5-5.7-17.1v-486.49c0-7.6,1.9-13.3,5.7-17.1s9.24-5.7,16.34-5.7h116.3c49.15,0,84.38,12.42,105.66,37.25,21.28,24.84,31.93,59.8,31.93,104.9v247.81c0,45.11-10.64,80.08-31.93,104.9-21.28,24.83-56.51,37.25-105.66,37.25h-116.3c-7.1,0-12.54-1.9-16.34-5.7ZM967.3,809.72c5.82-6.84,8.74-18.11,8.74-33.83v-259.97c0-15.7-2.92-26.98-8.74-33.83-5.83-6.84-14.82-10.26-26.99-10.26h-38.01v348.14h37.25c12.66,0,21.91-3.42,27.75-10.26Z"/>
        <path class="cls-2" d="M1169.12,905.88c-4.06-4.05-6.08-9.62-6.08-16.72v-417.32h-43.33c-7.1,0-12.67-2.02-16.72-6.08-4.06-4.05-6.08-9.62-6.08-16.72v-46.37c0-7.6,2.02-13.3,6.08-17.1,4.05-3.8,9.62-5.7,16.72-5.7h190.04c7.6,0,13.3,1.9,17.1,5.7s5.7,9.5,5.7,17.1v46.37c0,7.1-1.9,12.67-5.7,16.72-3.8,4.06-9.5,6.08-17.1,6.08h-44.85v417.32c0,7.1-1.9,12.67-5.7,16.72-3.8,4.06-9.25,6.08-16.34,6.08h-57.01c-7.1,0-12.67-2.02-16.72-6.08Z"/>
      </g>
    </g>
  </g>
</svg>